<svg width="20" height="24" viewBox="0 0 20 24" fill="none" xmlns="http://www.w3.org/2000/svg">
<path d="M8.83341 18.9999H11.1667V15.4999H14.6667V13.1666H11.1667V9.66659H8.83341V13.1666H5.33341V15.4999H8.83341V18.9999ZM3.00008 23.6666C2.35841 23.6666 1.8093 23.4383 1.35275 22.9818C0.895415 22.5244 0.666748 21.9749 0.666748 21.3333V2.66659C0.666748 2.02492 0.895415 1.47542 1.35275 1.01809C1.8093 0.56153 2.35841 0.333252 3.00008 0.333252H12.3334L19.3334 7.33325V21.3333C19.3334 21.9749 19.1051 22.5244 18.6486 22.9818C18.1912 23.4383 17.6417 23.6666 17.0001 23.6666H3.00008ZM11.1667 8.49992V2.66659H3.00008V21.3333H17.0001V8.49992H11.1667ZM3.00008 2.66659V8.49992V2.66659V21.3333V2.66659Z" fill="#222222"/>
</svg>
