<svg width="224" height="45" viewBox="0 0 224 45" fill="none" xmlns="http://www.w3.org/2000/svg">
<path d="M52.6159 22.434C52.6159 29.5765 46.8155 35.3666 39.6602 35.3666C32.505 35.3666 26.7046 29.5765 26.7046 22.434C26.7046 15.2916 32.505 9.50146 39.6602 9.50146C46.8155 9.50146 52.6159 15.2916 52.6159 22.434Z" fill="#FFA168"/>
<path d="M46.8384 22.4341C46.8384 26.3914 43.6246 29.5994 39.6603 29.5994C35.6959 29.5994 32.4821 26.3914 32.4821 22.4341C32.4821 18.4768 35.6959 15.2687 39.6603 15.2687C43.6246 15.2687 46.8384 18.4768 46.8384 22.4341Z" fill="#494E52"/>
<path d="M40.5356 18.4145C40.5356 16.6772 41.9465 15.2687 43.687 15.2687C45.4275 15.2687 46.8384 16.6772 46.8384 18.4145C46.8384 20.1519 45.4275 21.5603 43.687 21.5603C41.9465 21.5603 40.5356 20.1519 40.5356 18.4145Z" fill="#E5EEF6"/>
<path fill-rule="evenodd" clip-rule="evenodd" d="M71.6308 34.4731C74.6742 32.8159 77.4233 28.4861 77.4233 25.5376L71.77 24.6383C70.6839 25.5217 70.9815 29.7889 66.3628 29.7889C59.817 29.7889 60.4178 15.8089 65.6254 15.8089H66.1168C68.035 15.8089 69.6402 18.2612 69.8036 20.2236L76.1943 18.7521C76.1943 14.1066 70.6242 9.9224 65.6254 9.9224C54.7161 9.9224 52.061 23.3283 56.7809 31.0112C59.1152 35.4482 67.194 36.8894 71.6308 34.4732L71.6308 34.4731ZM211.833 15.3183C214.593 15.3183 216.34 18.2565 215.766 20.7142L207.414 20.4394C207.401 17.8169 208.828 15.3183 211.833 15.3183H211.833ZM224 28.6601L219.453 27.0909C218.322 30.907 207.409 33.8425 207.409 25.8645V24.3247L223.139 24.393C223.139 19.7575 223.211 17.5039 220.784 14.2348C219.042 11.8883 215.721 9.9223 211.833 9.9223C206.879 9.9223 203.275 13.0067 201.512 16.3008C199.584 19.9017 199.731 26.3778 201.742 29.8028C207.765 40.0644 221.796 35.4395 224 28.6601L224 28.6601ZM158.82 7.70882V14.8276H170.474C170.681 14.8276 170.852 15.0668 170.852 15.3611V19.922C170.852 20.2174 170.681 20.4566 170.474 20.4566H158.82V29.0424H172.033C172.258 29.0424 172.442 29.2922 172.442 29.5995V34.3642C172.442 34.6727 172.258 34.9225 172.033 34.9225H158.127H152.209H151.933C151.714 34.9225 151.533 34.685 151.525 34.3865C151.518 34.3512 151.515 34.3147 151.515 34.2779V2.47334C151.515 2.43659 151.518 2.40122 151.525 2.36614C151.532 2.06795 151.714 1.82878 151.933 1.82878H152.209H158.127H172.033C172.258 1.82878 172.442 2.07855 172.442 2.38593V7.15062C172.442 7.45912 172.258 7.70886 172.033 7.70886H158.82V7.70882ZM128.677 11.0675C128.719 10.9957 128.788 10.9478 128.864 10.9478H132.48C132.483 8.31941 132.659 5.1963 132.659 2.58968C132.659 2.40676 132.824 2.25698 133.027 2.25698H139.349C139.552 2.25698 139.718 2.40871 139.718 2.58968V10.7239V10.9478H147.956C148.081 10.9478 148.186 11.0767 148.186 11.2312V16.0953C148.186 16.2496 148.083 16.3788 147.956 16.3788H139.718V17.0707V26.8116C140.838 32.6007 146.019 29.6641 146.735 27.5815C146.967 27.5815 148.701 30.7494 148.701 31.0151C148.276 32.3415 147.659 33.3176 146.289 34.1473C143.689 35.7218 138.941 36.0824 136.224 34.5143C134.176 33.3318 132.751 31.1442 132.494 28.7932L132.484 27.2073L132.413 16.3788H128.864C128.803 16.3788 128.746 16.349 128.704 16.2994H128.547V11.0692L128.677 11.0675V11.0675ZM8.06312 34.2328V34.4625C8.06312 34.6936 7.87373 34.8827 7.64223 34.8827H4.05862C3.60732 34.9002 3.15687 34.9019 2.72871 34.8827H0.420893C0.189387 34.8827 0 34.6936 0 34.4625V33.713V32.3429V27.951V1.79199L11.5519 1.82875C19.0479 1.82875 26.5452 3.15629 26.5452 12.6202C26.5452 17.8474 24.1997 19.9629 20.9435 21.9921C17.0001 24.4492 10.8741 23.3293 8.1108 23.9023V32.5127V34.2035C8.09658 34.213 8.08068 34.223 8.0631 34.2328L8.06312 34.2328ZM175.739 12.8656V25.1288C175.739 31.3831 177.603 35.6751 183.849 35.6751C188.008 35.6751 189.158 32.2847 190.24 31.9962C193.108 42.741 179.379 39.3247 175.984 36.411C175.691 37.6653 173.772 40.1263 173.772 40.5804C177.993 46.62 197.391 48.2778 197.368 33.713L197.28 11.5637C197.279 11.1396 196.947 10.9035 196.63 10.9035H191.223L191.244 27.8755C191.247 30.704 182.305 30.9513 182.285 27.4687C182.264 23.6262 182.267 12.5256 182.129 10.9035H176.722C175.858 10.9035 175.739 11.9919 175.739 12.8656V12.8656ZM115.52 15.3182C118.28 15.3182 120.027 18.2564 119.453 20.7141L111.101 20.4393C111.088 17.8168 112.515 15.3182 115.52 15.3182H115.52ZM127.687 28.6601L123.14 27.0909C122.009 30.907 111.096 33.8424 111.096 25.8644V24.3247L126.826 24.3929C126.826 19.7574 126.898 17.5038 124.471 14.2348C122.729 11.8882 119.408 9.92227 115.52 9.92227C110.566 9.92227 106.962 13.0067 105.199 16.3007C103.271 19.9016 103.418 26.3778 105.429 29.8027C111.452 40.0643 125.483 35.4394 127.687 28.66L127.687 28.6601ZM87.5006 27.0909L89.9584 24.8835L96.7949 35.626L103.098 35.6168L94.4446 19.8162L101.964 11.3317L101.756 11.1488L94.8742 10.9035L87.5005 18.2615V27.0909L87.5006 27.0909ZM80.81 0H87.1321C87.3349 0 87.5006 0.191277 87.5006 0.420143V35.2198C87.5006 35.4487 87.3326 35.6399 87.1321 35.6399H80.81C80.6095 35.6399 80.4416 35.4509 80.4416 35.2198V0.420143C80.4416 0.189049 80.6072 0 80.81 0ZM8.1108 8.45077C8.1108 7.88557 8.28206 7.71489 8.84827 7.71489H13.5183C20.5056 7.71489 19.8554 17.5255 13.0268 17.5255H9.094C8.51886 17.5255 8.1108 17.1184 8.1108 16.5446V8.45074V8.45077Z" fill="#1F3F27"/>
</svg>
